<svg width="100" height="80" viewBox="0 0 100 80" fill="none" xmlns="http://www.w3.org/2000/svg">
<g clip-path="url(#clip0_13785_98850)">
<path fill-rule="evenodd" clip-rule="evenodd" d="M57.1393 21.2922V23.3518C57.1393 23.3638 57.1482 23.3739 57.1601 23.3757C62.7928 24.2142 66.3238 26.1492 68.4673 29.0097C70.3732 30.9188 71.6238 33.4919 71.8373 36.3744L72.1523 40.6262C72.1604 40.7357 72.2557 40.8172 72.3655 40.8172C73.8495 40.8172 75.0525 42.0202 75.0525 43.5042C75.0525 44.9881 73.8495 46.1911 72.3655 46.1911C72.3587 46.1911 72.3518 46.1911 72.345 46.1911C72.2027 46.19 72.06 46.1911 71.9177 46.1911C71.8246 46.1911 71.7409 46.2524 71.7203 46.3431L69.947 54.1456C69.8797 54.4415 69.8015 54.7326 69.7129 55.0185C69.0763 57.0722 68.0754 59.1272 66.4565 60.5421C64.8377 61.9568 62.6996 62.6726 60.5811 63.0386C59.9331 63.1506 59.2686 63.2087 58.5929 63.2087H41.3548C40.6788 63.2087 40.0139 63.1505 39.3655 63.0384C37.2476 62.6723 35.1101 61.9566 33.4917 60.5422C31.8731 59.1278 30.8722 57.0734 30.2354 55.0203C30.1466 54.7339 30.0682 54.4422 30.0008 54.1458L28.2273 46.3427C28.2067 46.2522 28.1231 46.1911 28.0303 46.1911C27.888 46.1911 27.7453 46.19 27.603 46.1911C27.5961 46.1911 27.5893 46.1911 27.5825 46.1911C26.0985 46.1911 24.8955 44.9881 24.8955 43.5042C24.8955 42.0202 26.0985 40.8172 27.5825 40.8172C27.692 40.8172 27.7871 40.7359 27.7952 40.6266L28.1102 36.3744C28.3238 33.4904 29.5756 30.9162 31.4832 29.0068C33.5034 26.3127 36.7551 24.4399 41.8356 23.5315C41.88 23.5235 41.9131 23.4848 41.9131 23.4397C41.9131 23.385 41.9413 23.3343 41.9877 23.3054L50.9464 17.7392C51.0677 17.6638 51.2189 17.7752 51.1828 17.9135L50.2282 21.5634C50.1901 21.7089 50.3576 21.8203 50.4771 21.7289L54.3604 18.7594C54.4864 18.663 54.66 18.7916 54.6045 18.9403L53.7171 21.3152C53.6755 21.4267 53.7672 21.5424 53.8852 21.5274L56.9612 21.1353C57.0557 21.1233 57.1393 21.1969 57.1393 21.2922Z" fill="#EBE0DB"/>
<path fill-rule="evenodd" clip-rule="evenodd" d="M57.1396 23.3518C57.1396 23.3638 57.1485 23.3739 57.1604 23.3757C62.7931 24.2142 66.3241 26.1492 68.4676 29.0097C70.3735 30.9188 71.6241 33.4919 71.8376 36.3744L72.1526 40.6262C72.1607 40.7357 72.256 40.8172 72.3658 40.8172C73.8498 40.8172 75.0528 42.0202 75.0528 43.5042C75.0528 44.9881 73.8498 46.1911 72.3658 46.1911L72.3453 46.1911C72.2515 46.1904 72.1575 46.1906 72.0636 46.1909C72.0151 46.191 71.9665 46.1911 71.918 46.1911C71.8249 46.1911 71.7412 46.2524 71.7206 46.3431L69.9473 54.1456C69.88 54.4415 69.8018 54.7326 69.7132 55.0185C69.0767 57.0722 68.0757 59.1272 66.4568 60.5421C64.838 61.9568 62.6999 62.6726 60.5814 63.0386C59.9334 63.1506 59.2689 63.2087 58.5932 63.2087H41.3551C40.6791 63.2087 40.0142 63.1505 39.3658 63.0384C37.2479 62.6723 35.1104 61.9566 33.492 60.5422C31.8734 59.1278 30.8725 57.0734 30.2357 55.0203C30.1469 54.7339 30.0685 54.4422 30.0011 54.1458L28.2276 46.3428C28.207 46.2523 28.1234 46.1911 28.0306 46.1911C27.9821 46.1911 27.9335 46.191 27.885 46.1909C27.791 46.1906 27.6971 46.1904 27.6033 46.1911L27.5828 46.1911C26.0988 46.1911 24.8958 44.9881 24.8958 43.5042C24.8958 42.0202 26.0988 40.8172 27.5828 40.8172C27.6923 40.8172 27.7874 40.7359 27.7955 40.6266L28.1105 36.3744C28.3242 33.4904 29.5759 30.9162 31.4835 29.0068C33.5037 26.3127 36.7554 24.4399 41.8359 23.5315C41.8803 23.5235 41.9134 23.4848 41.9134 23.4397C41.9134 23.385 41.9416 23.3343 41.988 23.3054L50.9467 17.7392C51.068 17.6638 51.2192 17.7753 51.1831 17.9135L50.2285 21.5634C50.1904 21.7089 50.3579 21.8203 50.4774 21.729L54.3607 18.7594C54.4868 18.663 54.6604 18.7916 54.6048 18.9403L53.7175 21.3153C53.6946 21.3764 53.7119 21.4388 53.7516 21.4802C53.7843 21.5143 53.8322 21.5342 53.8855 21.5274L56.9615 21.1354C57.056 21.1233 57.1396 21.1969 57.1396 21.2922V23.3518ZM56.3351 19.4094L56.735 19.3584C57.9001 19.2099 58.9309 20.1177 58.9309 21.2922V21.8622C63.9786 22.8479 67.5218 24.8216 69.8245 27.8343C71.9724 30.0267 73.3811 32.962 73.6241 36.2421L73.8489 39.2773C75.5933 39.8893 76.8441 41.5507 76.8441 43.5042C76.8441 45.6914 75.276 47.5125 73.2027 47.9044L71.6941 54.5426C71.6166 54.8835 71.5265 55.2191 71.4242 55.5489C70.7424 57.7484 69.6114 60.1642 67.6356 61.8909C65.6643 63.6137 63.1564 64.4116 60.8864 64.8038C60.1383 64.933 59.3718 65 58.5932 65H41.3551C40.5761 65 39.8092 64.933 39.0607 64.8036C36.7912 64.4112 34.2841 63.6134 32.3132 61.8911C30.3378 60.1648 29.2068 57.7499 28.5248 55.551C28.4223 55.2206 28.332 54.8843 28.2544 54.5428L26.7455 47.9043C24.6724 47.5122 23.1045 45.6913 23.1045 43.5042C23.1045 41.5508 24.3551 39.8896 26.0993 39.2774L26.3241 36.2421C26.5672 32.9603 27.9772 30.0237 30.127 27.8309C32.409 24.8471 35.9126 22.88 40.8931 21.8867C40.9411 21.8503 40.9909 21.816 41.0426 21.7839L50.0013 16.2176C51.2555 15.4384 52.7682 16.2779 52.9624 17.5736L53.2726 17.3364C54.7821 16.1821 56.8447 17.6451 56.3351 19.4094Z" fill="black"/>
<path d="M69.6787 43.5041C69.6787 42.0201 70.8817 40.8171 72.3657 40.8171C73.8497 40.8171 75.0527 42.0201 75.0527 43.5041C75.0527 44.9881 73.8497 46.1911 72.3657 46.1911C70.8817 46.1911 69.6787 44.9881 69.6787 43.5041Z" fill="#EBE0DB"/>
<path d="M69.6787 43.9519C69.6787 42.7153 70.6812 41.7128 71.9179 41.7128C73.1545 41.7128 74.157 42.7153 74.157 43.9519C74.157 45.1886 73.1545 46.1911 71.9179 46.1911C70.6812 46.1911 69.6787 45.1886 69.6787 43.9519Z" fill="#B18977"/>
<path d="M30.2695 43.5041C30.2695 42.0201 29.0665 40.8171 27.5826 40.8171C26.0986 40.8171 24.8956 42.0201 24.8956 43.5041C24.8956 44.9881 26.0986 46.1911 27.5826 46.1911C29.0665 46.1911 30.2695 44.9881 30.2695 43.5041Z" fill="#EBE0DB"/>
<path d="M30.2695 43.9519C30.2695 42.7153 29.267 41.7128 28.0304 41.7128C26.7937 41.7128 25.7912 42.7153 25.7912 43.9519C25.7912 45.1886 26.7937 46.1911 28.0304 46.1911C29.267 46.1911 30.2695 45.1886 30.2695 43.9519Z" fill="#B18977"/>
<path d="M57.1393 21.2922V23.3518V29.9112C57.1393 29.9985 57.0685 30.0693 56.9812 30.0693H42.0712C41.9839 30.0693 41.9131 29.9985 41.9131 29.9112V23.4397C41.9131 23.385 41.9413 23.3343 41.9877 23.3054L50.9464 17.7392C51.0678 17.6638 51.2189 17.7752 51.1828 17.9135L50.2282 21.5634C50.1901 21.7089 50.3577 21.8203 50.4772 21.7289L54.3604 18.7594C54.4865 18.663 54.6601 18.7916 54.6045 18.9403L53.7172 21.3152C53.6756 21.4267 53.7673 21.5424 53.8852 21.5274L56.9612 21.1353C57.0557 21.1233 57.1393 21.1969 57.1393 21.2922Z" fill="#BC8B2C"/>
<path fill-rule="evenodd" clip-rule="evenodd" d="M31.483 29.0069C34.4235 25.0854 39.9732 22.9041 49.9739 22.9041C59.9771 22.9041 65.5271 25.0865 68.4671 29.0098C70.373 30.9189 71.6236 33.4919 71.8371 36.3745L72.2405 41.8205C72.3233 42.9372 72.2445 44.0599 72.0066 45.1541L69.8805 54.9343C68.7169 60.2867 63.9801 64.1044 58.5026 64.1044H41.4447C35.9674 64.1044 31.2306 60.2868 30.0669 54.9345L27.9406 45.1542C27.7027 44.0599 27.6239 42.9371 27.7066 41.8204L28.11 36.3745C28.3236 33.4905 29.5754 30.9163 31.483 29.0069Z" fill="#EBE0DB"/>
<path d="M71.4702 41.7129C71.4702 52.188 61.8462 60.5217 49.9744 60.5217C38.1025 60.5217 28.4785 52.188 28.4785 41.7129C28.4785 31.2377 32.2022 24.6953 49.9744 24.6953C67.7465 24.6953 71.4702 31.2377 71.4702 41.7129Z" fill="#D2BBB0"/>
<path d="M40.7311 42.0524C41.4195 38.7252 44.3501 36.3389 47.7478 36.3389H52.2005C55.5983 36.3389 58.5288 38.7252 59.2172 42.0524L61.6262 53.696C62.5463 58.1428 59.1506 62.313 54.6096 62.313H45.3388C40.7978 62.313 37.4021 58.1428 38.3221 53.696L40.7311 42.0524Z" fill="#B18977"/>
<path d="M64.6625 43.6443L62.2876 43.1353C60.1962 42.687 58.4204 41.2307 56.6603 40.0156C55.241 39.0358 53.0873 38.1301 49.9744 38.1301C46.8616 38.1301 44.7078 39.0358 43.2886 40.0156C41.5284 41.2307 39.7526 42.687 37.6612 43.1353L35.2864 43.6443C31.1552 44.5298 28.6831 48.7792 29.9554 52.8082L31.3755 57.3054C32.3169 60.2863 35.0822 62.313 38.2082 62.313H49.9744H61.7406C64.8667 62.313 67.632 60.2863 68.5733 57.3054L69.9935 52.8082C71.2658 48.7792 68.7937 44.5298 64.6625 43.6443Z" fill="#EBE0DB"/>
<path fill-rule="evenodd" clip-rule="evenodd" d="M74.3426 46.9363C73.7335 46.7423 73.1019 46.5834 72.4467 46.4921C71.0098 46.2921 69.5483 46.1912 68.0825 46.1912C65.4386 46.1912 62.815 46.5194 60.3306 47.1611L56.2078 48.2259C56.0948 48.2551 56.0365 48.3438 56.0777 48.424L56.3012 48.8597C56.3424 48.9399 56.4674 48.9813 56.5804 48.9521L60.7032 47.8873C63.0682 47.2765 65.5656 46.964 68.0825 46.964C69.7965 46.964 71.5044 47.1089 73.1701 47.3957L75.7436 47.716C75.9962 47.7474 76.1044 47.4972 75.8704 47.4227L74.3426 46.9363Z" fill="#333333"/>
<path fill-rule="evenodd" clip-rule="evenodd" d="M66.4028 47.3115C64.2841 47.2073 62.1552 47.3101 60.0759 47.6169L56.2704 48.1786C56.1526 48.196 56.077 48.2778 56.1015 48.3614L56.2346 48.8154C56.2591 48.8989 56.3744 48.9526 56.4922 48.9352L60.2977 48.3736C62.2794 48.0811 64.3082 47.9832 66.3274 48.0825C68.5449 48.1916 70.7264 48.5374 72.7984 49.1082L75.2658 49.6754C75.5096 49.7314 75.6659 49.4946 75.4491 49.3976L74.0815 48.7855C73.4903 48.521 72.8671 48.2921 72.2048 48.1338C70.3296 47.6854 68.3798 47.4088 66.4028 47.3115Z" fill="#333333"/>
<path fill-rule="evenodd" clip-rule="evenodd" d="M70.3996 49.1022C66.9398 48.4523 63.3759 48.1233 59.7969 48.1233H56.3744C56.2541 48.1233 56.1566 48.1925 56.1566 48.2778V48.7415C56.1566 48.8269 56.2541 48.8961 56.3744 48.8961H59.7969C63.2716 48.8961 66.7317 49.2146 70.0912 49.8437C71.5551 50.2501 72.5907 50.4377 73.7187 51.2146L75.4312 52.4263C75.6217 52.5328 75.878 52.372 75.7524 52.2248L75.5022 51.9317C75.0206 51.3674 74.4542 50.8353 73.7187 50.4317C72.7101 49.8785 71.5774 49.4266 70.3996 49.1022Z" fill="#333333"/>
<path fill-rule="evenodd" clip-rule="evenodd" d="M25.6574 46.9363C26.2665 46.7423 26.8981 46.5834 27.5533 46.4921C28.9902 46.2921 30.4517 46.1912 31.9175 46.1912C34.5614 46.1912 37.185 46.5194 39.6694 47.1611L43.7922 48.2259C43.9052 48.2551 43.9635 48.3438 43.9223 48.424L43.6988 48.8597C43.6576 48.9399 43.5326 48.9813 43.4196 48.9521L39.2968 47.8873C36.9318 47.2765 34.4344 46.964 31.9175 46.964C30.2035 46.964 28.4956 47.1089 26.8299 47.3957L24.2564 47.716C24.0038 47.7474 23.8956 47.4972 24.1296 47.4227L25.6574 46.9363Z" fill="#333333"/>
<path fill-rule="evenodd" clip-rule="evenodd" d="M33.5972 47.3115C35.7159 47.2073 37.8448 47.3101 39.9241 47.6169L43.7296 48.1786C43.8474 48.196 43.923 48.2778 43.8985 48.3614L43.7654 48.8154C43.7409 48.8989 43.6256 48.9526 43.5078 48.9352L39.7023 48.3736C37.7206 48.0811 35.6918 47.9832 33.6726 48.0825C31.4551 48.1916 29.2736 48.5374 27.2016 49.1082L24.7342 49.6754C24.4904 49.7314 24.3341 49.4946 24.5509 49.3976L25.9185 48.7855C26.5097 48.521 27.1329 48.2921 27.7952 48.1338C29.6704 47.6854 31.6202 47.4088 33.5972 47.3115Z" fill="#333333"/>
<path fill-rule="evenodd" clip-rule="evenodd" d="M29.6004 49.1022C33.0602 48.4523 36.6241 48.1233 40.2031 48.1233H43.6256C43.7459 48.1233 43.8434 48.1925 43.8434 48.2778V48.7415C43.8434 48.8269 43.7459 48.8961 43.6256 48.8961H40.2031C36.7284 48.8961 33.2683 49.2146 29.9088 49.8437C28.4449 50.2501 27.4093 50.4377 26.2813 51.2146L24.5688 52.4263C24.3783 52.5328 24.122 52.372 24.2476 52.2248L24.4978 51.9317C24.9794 51.3674 25.5458 50.8353 26.2813 50.4317C27.2899 49.8785 28.4226 49.4266 29.6004 49.1022Z" fill="#333333"/>
<path d="M43.2441 43.0226C43.3759 42.2655 44.033 41.7128 44.8015 41.7128H55.1474C55.9159 41.7128 56.573 42.2655 56.7048 43.0226L57.7132 48.8176C57.8814 49.7845 57.1372 50.6694 56.1558 50.6694H43.7931C42.8117 50.6694 42.0675 49.7845 42.2357 48.8176L43.2441 43.0226Z" fill="#BC8B2C"/>
<path fill-rule="evenodd" clip-rule="evenodd" d="M49.0791 52.7026L49.0791 47.5651L50.8704 47.5651L50.8704 52.7026L49.0791 52.7026Z" fill="black"/>
<path d="M54.6907 54.455C53.6449 55.0275 52.4238 55.0021 51.3948 54.4036C51.0887 54.2256 50.3084 54.1286 49.9743 54.1131C49.6401 54.1286 49.0142 54.2256 48.7082 54.4036C47.6791 55.0021 46.4581 55.0275 45.4123 54.455C44.4131 53.908 43.6019 53.0726 43.0846 52.0577L42.9238 51.7423C42.8922 51.6803 42.963 51.6164 43.0215 51.6541L43.6905 52.0857C44.199 52.4137 44.7525 52.6658 45.3336 52.8342C45.7705 52.9608 46.1854 53.1714 46.6327 53.2536C47.1272 53.3444 47.6431 53.2557 48.1004 52.9897C48.5965 52.7011 49.4308 52.5477 49.9743 52.5315C50.5178 52.5477 51.5065 52.7011 52.0025 52.9897C52.4599 53.2557 52.9758 53.3444 53.4703 53.2536C53.9176 53.1714 54.3325 52.9608 54.7694 52.8342C55.3505 52.6658 55.904 52.4137 56.4125 52.0857L57.0815 51.6541C57.14 51.6164 57.2108 51.6803 57.1792 51.7423L57.0184 52.0577C56.5011 53.0726 55.6899 53.908 54.6907 54.455Z" fill="#333333"/>
<path d="M45.6645 40.8356C45.9234 39.7734 46.8749 39.0259 47.9682 39.0259H51.9798C53.0731 39.0259 54.0247 39.7734 54.2836 40.8356L55.5289 45.9455C55.8928 47.4386 54.762 48.8781 53.2252 48.8781H46.7229C45.1861 48.8781 44.0552 47.4386 44.4191 45.9455L45.6645 40.8356Z" fill="#333333"/>
<path d="M45.5636 43.3306C45.8874 42.3642 46.7927 41.7128 47.8119 41.7128H52.1365C53.1558 41.7128 54.061 42.3642 54.3848 43.3306L55.1968 45.7535C55.7115 47.2896 54.5685 48.8781 52.9484 48.8781H47C45.3799 48.8781 44.2369 47.2896 44.7517 45.7535L45.5636 43.3306Z" fill="black"/>
<path fill-rule="evenodd" clip-rule="evenodd" d="M64.5119 36.9831C65.3173 37.0114 66.9915 36.8226 66.9915 36.8226C66.4611 36.7759 65.7811 36.4567 65.0688 36.1224C64.2822 35.7531 63.4563 35.3655 62.7494 35.3063C61.4004 35.1935 60.7219 36.6509 60.7219 36.6509C60.7549 36.6394 60.7878 36.6283 60.8204 36.6178C60.2138 37.2361 59.8262 38.1795 59.8262 39.2366C59.8262 41.0989 61.0292 42.6085 62.5132 42.6085C63.9971 42.6085 65.2001 41.0989 65.2001 39.2366C65.2001 38.3703 64.9398 37.5803 64.5119 36.9831Z" fill="black"/>
<path fill-rule="evenodd" clip-rule="evenodd" d="M35.4353 36.9831C34.63 37.0114 32.9557 36.8226 32.9557 36.8226C33.4862 36.7759 34.1662 36.4567 34.8784 36.1224C35.6651 35.7531 36.4909 35.3655 37.1979 35.3063C38.5469 35.1935 39.2253 36.6509 39.2253 36.6509C39.1923 36.6394 39.1595 36.6283 39.1268 36.6178C39.7335 37.2361 40.1211 38.1795 40.1211 39.2366C40.1211 41.0989 38.9181 42.6085 37.4341 42.6085C35.9501 42.6085 34.7471 41.0989 34.7471 39.2366C34.7471 38.3703 35.0075 37.5803 35.4353 36.9831Z" fill="black"/>
<path d="M67.8873 60.0739L68.5554 59.2387C69.3021 58.3053 69.9481 57.2957 70.4827 56.2266L70.6363 55.9193C70.8932 55.4056 71.1132 54.8743 71.2949 54.3294L71.8386 52.698C71.891 52.5409 71.9177 52.3763 71.9177 52.2107V51.1724C71.9177 50.8946 71.6925 50.6694 71.4148 50.6694C71.1839 50.6694 70.9827 50.8265 70.9268 51.0504L70.2049 53.9379C70.1526 54.1471 70.0847 54.352 70.0018 54.551L69.8434 54.9311C68.6169 57.8747 66.0392 60.0451 62.906 60.639C58.8887 61.4005 53.3667 62.313 49.974 62.313C46.5813 62.313 41.0593 61.4005 37.042 60.639C33.9089 60.0451 31.3311 57.8747 30.1046 54.9311L29.9462 54.551C29.8633 54.352 29.7954 54.1471 29.7431 53.9379L29.0212 51.0504C28.9653 50.8265 28.7641 50.6694 28.5333 50.6694C28.2555 50.6694 28.0303 50.8946 28.0303 51.1724V52.2107C28.0303 52.3763 28.057 52.5409 28.1094 52.698L28.6532 54.3294C28.8348 54.8743 29.0548 55.4056 29.3117 55.9193L29.4653 56.2266C29.9999 57.2957 30.6459 58.3053 31.3926 59.2387L32.0607 60.0739C33.5176 61.8221 35.4806 63.0757 37.6795 63.6621L41.0174 64.5522C42.8056 64.8502 44.6154 65 46.4283 65H53.9602C55.4788 65 56.9937 64.85 58.4828 64.5522L62.2549 63.6092C64.4598 63.0579 66.4323 61.8199 67.8873 60.0739Z" fill="black"/>
</g>
<path d="M62 56.5L68.74 57.2095C70.4457 57.389 72.1162 56.6373 73.1131 55.2417V55.2417C73.6899 54.4341 74 53.4665 74 52.4741V51.4088C74 50.1535 73.7077 48.9155 73.1464 47.7927L73 47.5" stroke="black"/>
<circle cx="62" cy="56.5" r="3" fill="#06C167" stroke="black" stroke-width="2"/>
<path fill-rule="evenodd" clip-rule="evenodd" d="M74.3426 47.9363C73.7335 47.7423 73.1019 47.5834 72.4467 47.4921C71.0098 47.2921 69.5483 47.1912 68.0825 47.1912C65.4386 47.1912 62.815 47.5194 60.3306 48.1611L56.2078 49.2259C56.0948 49.2551 56.0365 49.3438 56.0777 49.424L56.3012 49.8597C56.3424 49.9399 56.4674 49.9813 56.5804 49.9521L60.7032 48.8873C63.0682 48.2765 65.5656 47.964 68.0825 47.964C69.7965 47.964 71.5044 48.1089 73.1701 48.3957L75.7436 48.716C75.9962 48.7474 76.1044 48.4972 75.8704 48.4227L74.3426 47.9363Z" fill="#333333"/>
<path fill-rule="evenodd" clip-rule="evenodd" d="M66.4028 48.3115C64.2841 48.2073 62.1552 48.3101 60.0759 48.6169L56.2704 49.1786C56.1526 49.196 56.077 49.2778 56.1015 49.3614L56.2346 49.8154C56.2591 49.8989 56.3744 49.9526 56.4922 49.9352L60.2977 49.3736C62.2794 49.0811 64.3082 48.9832 66.3274 49.0825C68.5449 49.1916 70.7264 49.5374 72.7984 50.1082L75.2658 50.6754C75.5096 50.7314 75.6659 50.4946 75.4491 50.3976L74.0815 49.7855C73.4903 49.521 72.8671 49.2921 72.2048 49.1338C70.3296 48.6854 68.3798 48.4088 66.4028 48.3115Z" fill="#333333"/>
<path fill-rule="evenodd" clip-rule="evenodd" d="M70.3996 50.1022C66.9398 49.4523 63.3759 49.1233 59.7969 49.1233H56.3744C56.2541 49.1233 56.1566 49.1925 56.1566 49.2778V49.7415C56.1566 49.8269 56.2541 49.8961 56.3744 49.8961H59.7969C63.2716 49.8961 66.7317 50.2146 70.0912 50.8437C71.5551 51.2501 72.5907 51.4377 73.7187 52.2146L75.4312 53.4263C75.6217 53.5328 75.878 53.372 75.7524 53.2248L75.5022 52.9317C75.0206 52.3674 74.4542 51.8353 73.7187 51.4317C72.7101 50.8785 71.5774 50.4266 70.3996 50.1022Z" fill="#333333"/>
<path fill-rule="evenodd" clip-rule="evenodd" d="M25.6574 47.9363C26.2665 47.7423 26.8981 47.5834 27.5533 47.4921C28.9902 47.2921 30.4517 47.1912 31.9175 47.1912C34.5614 47.1912 37.185 47.5194 39.6694 48.1611L43.7922 49.2259C43.9052 49.2551 43.9635 49.3438 43.9223 49.424L43.6988 49.8597C43.6576 49.9399 43.5326 49.9813 43.4196 49.9521L39.2968 48.8873C36.9318 48.2765 34.4344 47.964 31.9175 47.964C30.2035 47.964 28.4956 48.1089 26.8299 48.3957L24.2564 48.716C24.0038 48.7474 23.8956 48.4972 24.1296 48.4227L25.6574 47.9363Z" fill="#333333"/>
<path fill-rule="evenodd" clip-rule="evenodd" d="M33.5972 48.3115C35.7159 48.2073 37.8448 48.3101 39.9241 48.6169L43.7296 49.1786C43.8474 49.196 43.923 49.2778 43.8985 49.3614L43.7654 49.8154C43.7409 49.8989 43.6256 49.9526 43.5078 49.9352L39.7023 49.3736C37.7206 49.0811 35.6918 48.9832 33.6726 49.0825C31.4551 49.1916 29.2736 49.5374 27.2016 50.1082L24.7342 50.6754C24.4904 50.7314 24.3341 50.4946 24.5509 50.3976L25.9185 49.7855C26.5097 49.521 27.1329 49.2921 27.7952 49.1338C29.6704 48.6854 31.6202 48.4088 33.5972 48.3115Z" fill="#333333"/>
<path fill-rule="evenodd" clip-rule="evenodd" d="M29.6004 50.1022C33.0602 49.4523 36.6241 49.1233 40.2031 49.1233H43.6256C43.7459 49.1233 43.8434 49.1925 43.8434 49.2778V49.7415C43.8434 49.8269 43.7459 49.8961 43.6256 49.8961H40.2031C36.7284 49.8961 33.2683 50.2146 29.9088 50.8437C28.4449 51.2501 27.4093 51.4377 26.2813 52.2146L24.5688 53.4263C24.3783 53.5328 24.122 53.372 24.2476 53.2248L24.4978 52.9317C24.9794 52.3674 25.5458 51.8353 26.2813 51.4317C27.2899 50.8785 28.4226 50.4266 29.6004 50.1022Z" fill="#333333"/>
<defs>
<clipPath id="clip0_13785_98850">
<rect width="53.7396" height="49.0825" fill="white" transform="translate(23.1045 15.9175)"/>
</clipPath>
</defs>
</svg>
