<svg width="100" height="80" viewBox="0 0 100 80" fill="none" xmlns="http://www.w3.org/2000/svg">
<path d="M59.1153 37.6854L75.3352 9.57087C75.6056 9.06882 76.3393 9.06882 76.6483 9.57087L92.9068 37.6854C93.1771 38.1874 92.8295 38.8053 92.2503 38.8053H59.7332C59.1539 38.8053 58.8064 38.1874 59.1153 37.6854Z" fill="#E11900"/>
<path d="M63.6338 35.8318L75.9918 14.437L88.3498 35.8318H63.6338Z" fill="black"/>
<path d="M75.9916 30.6567C76.3005 30.6567 76.5709 30.7726 76.8026 31.0043C77.0343 31.236 77.1501 31.5064 77.1501 31.8153C77.1501 32.1243 77.0343 32.3946 76.8026 32.6263C76.5709 32.858 76.3005 32.9739 75.9916 32.9739C75.6826 32.9739 75.3737 32.858 75.1806 32.6263C74.9489 32.3946 74.833 32.1243 74.833 31.8153C74.833 31.5064 74.9489 31.236 75.1806 31.0043C75.4123 30.7726 75.6826 30.6567 75.9916 30.6567ZM75.1033 29.6526L74.9489 21.3496H77.0729L76.8798 29.6526H75.1033Z" fill="white"/>
<g clip-path="url(#clip0_13785_208105)">
<path fill-rule="evenodd" clip-rule="evenodd" d="M57.3893 21.2922V23.3518C57.3893 23.3638 57.3982 23.3739 57.4101 23.3757C63.0428 24.2142 66.5738 26.1492 68.7173 29.0097C70.6232 30.9188 71.8738 33.4919 72.0873 36.3744L72.4023 40.6262C72.4104 40.7357 72.5057 40.8172 72.6155 40.8172C74.0995 40.8172 75.3025 42.0202 75.3025 43.5042C75.3025 44.9881 74.0995 46.1911 72.6155 46.1911C72.6087 46.1911 72.6018 46.1911 72.595 46.1911C72.4527 46.19 72.31 46.1911 72.1677 46.1911C72.0746 46.1911 71.9909 46.2524 71.9703 46.3431L70.197 54.1456C70.1297 54.4415 70.0515 54.7326 69.9629 55.0185C69.3263 57.0722 68.3254 59.1272 66.7065 60.5421C65.0877 61.9568 62.9496 62.6726 60.8311 63.0386C60.1831 63.1506 59.5186 63.2087 58.8429 63.2087H41.6048C40.9288 63.2087 40.2639 63.1505 39.6155 63.0384C37.4976 62.6723 35.3601 61.9566 33.7417 60.5422C32.1231 59.1278 31.1222 57.0734 30.4854 55.0203C30.3966 54.7339 30.3182 54.4422 30.2508 54.1458L28.4773 46.3427C28.4567 46.2522 28.3731 46.1911 28.2803 46.1911C28.138 46.1911 27.9953 46.19 27.853 46.1911C27.8461 46.1911 27.8393 46.1911 27.8325 46.1911C26.3485 46.1911 25.1455 44.9881 25.1455 43.5042C25.1455 42.0202 26.3485 40.8172 27.8325 40.8172C27.942 40.8172 28.0371 40.7359 28.0452 40.6266L28.3602 36.3744C28.5738 33.4904 29.8256 30.9162 31.7332 29.0068C33.7534 26.3127 37.0051 24.4399 42.0856 23.5315C42.13 23.5235 42.1631 23.4848 42.1631 23.4397C42.1631 23.385 42.1913 23.3343 42.2377 23.3054L51.1964 17.7392C51.3177 17.6638 51.4689 17.7752 51.4328 17.9135L50.4782 21.5634C50.4401 21.7089 50.6076 21.8203 50.7271 21.7289L54.6104 18.7594C54.7364 18.663 54.91 18.7916 54.8545 18.9403L53.9671 21.3152C53.9255 21.4267 54.0172 21.5424 54.1352 21.5274L57.2112 21.1353C57.3057 21.1233 57.3893 21.1969 57.3893 21.2922Z" fill="#EBE0DB"/>
<path fill-rule="evenodd" clip-rule="evenodd" d="M57.3896 23.3518C57.3896 23.3637 57.3985 23.3739 57.4104 23.3756C63.0431 24.2141 66.5741 26.1492 68.7176 29.0096C70.6235 30.9188 71.8741 33.4918 72.0876 36.3744L72.4026 40.6262C72.4107 40.7357 72.506 40.8171 72.6158 40.8171C74.0998 40.8171 75.3028 42.0201 75.3028 43.5041C75.3028 44.9881 74.0998 46.1911 72.6158 46.1911L72.5953 46.191C72.5015 46.1903 72.4075 46.1906 72.3136 46.1908C72.2651 46.191 72.2165 46.1911 72.168 46.1911C72.0749 46.1911 71.9912 46.2523 71.9706 46.343L70.1973 54.1455C70.13 54.4414 70.0518 54.7325 69.9632 55.0185C69.3267 57.0721 68.3257 59.1272 66.7068 60.542C65.088 61.9568 62.9499 62.6725 60.8314 63.0386C60.1834 63.1505 59.5189 63.2086 58.8432 63.2086H41.6051C40.9291 63.2086 40.2642 63.1505 39.6158 63.0384C37.4979 62.6722 35.3604 61.9565 33.742 60.5422C32.1234 59.1277 31.1225 57.0734 30.4857 55.0203C30.3969 54.7338 30.3185 54.4422 30.2511 54.1457L28.4776 46.3427C28.457 46.2522 28.3734 46.1911 28.2806 46.1911C28.2321 46.1911 28.1835 46.191 28.135 46.1908C28.041 46.1906 27.9471 46.1903 27.8533 46.191L27.8328 46.1911C26.3488 46.1911 25.1458 44.9881 25.1458 43.5041C25.1458 42.0201 26.3488 40.8171 27.8328 40.8171C27.9423 40.8171 28.0374 40.7358 28.0455 40.6266L28.3605 36.3744C28.5742 33.4904 29.8259 30.9162 31.7335 29.0067C33.7537 26.3126 37.0054 24.4398 42.0859 23.5314C42.1303 23.5235 42.1634 23.4848 42.1634 23.4396C42.1634 23.385 42.1916 23.3342 42.238 23.3054L51.1967 17.7391C51.318 17.6637 51.4692 17.7752 51.4331 17.9134L50.4785 21.5633C50.4404 21.7089 50.6079 21.8203 50.7274 21.7289L54.6107 18.7593C54.7368 18.6629 54.9104 18.7916 54.8548 18.9402L53.9675 21.3152C53.9446 21.3763 53.9619 21.4387 54.0016 21.4801C54.0343 21.5142 54.0822 21.5341 54.1355 21.5273L57.2115 21.1353C57.306 21.1233 57.3896 21.1969 57.3896 21.2921V23.3518ZM56.5851 19.4093L56.985 19.3583C58.1501 19.2099 59.1809 20.1177 59.1809 21.2921V21.8621C64.2286 22.8478 67.7718 24.8215 70.0745 27.8342C72.2224 30.0266 73.6311 32.962 73.8741 36.242L74.0989 39.2772C75.8433 39.8893 77.0941 41.5506 77.0941 43.5041C77.0941 45.6914 75.526 47.5124 73.4527 47.9043L71.9441 54.5425C71.8666 54.8834 71.7765 55.219 71.6742 55.5488C70.9924 57.7484 69.8614 60.1641 67.8856 61.8908C65.9143 63.6137 63.4064 64.4115 61.1364 64.8037C60.3883 64.933 59.6218 65 58.8432 65H41.6051C40.8261 65 40.0592 64.9329 39.3107 64.8035C37.0412 64.4112 34.5341 63.6134 32.5632 61.891C30.5878 60.1648 29.4568 57.7498 28.7748 55.5509C28.6723 55.2205 28.582 54.8843 28.5044 54.5427L26.9955 47.9043C24.9224 47.5122 23.3545 45.6912 23.3545 43.5041C23.3545 41.5508 24.6051 39.8895 26.3493 39.2774L26.5741 36.242C26.8172 32.9603 28.2272 30.0236 30.377 27.8308C32.659 24.8471 36.1626 22.8799 41.1431 21.8867C41.1911 21.8503 41.2409 21.8159 41.2926 21.7838L50.2513 16.2176C51.5055 15.4383 53.0182 16.2779 53.2124 17.5736L53.5226 17.3364C55.0321 16.182 57.0947 17.6451 56.5851 19.4093Z" fill="black"/>
<path d="M69.9287 43.5039C69.9287 42.0199 71.1317 40.8169 72.6157 40.8169C74.0997 40.8169 75.3027 42.0199 75.3027 43.5039C75.3027 44.9879 74.0997 46.1909 72.6157 46.1909C71.1317 46.1909 69.9287 44.9879 69.9287 43.5039Z" fill="#EBE0DB"/>
<path d="M69.9287 43.9516C69.9287 42.7149 70.9312 41.7124 72.1679 41.7124C73.4045 41.7124 74.407 42.7149 74.407 43.9516C74.407 45.1882 73.4045 46.1907 72.1679 46.1907C70.9312 46.1907 69.9287 45.1882 69.9287 43.9516Z" fill="#B18977"/>
<path d="M30.5195 43.5039C30.5195 42.0199 29.3165 40.8169 27.8326 40.8169C26.3486 40.8169 25.1456 42.0199 25.1456 43.5039C25.1456 44.9879 26.3486 46.1909 27.8326 46.1909C29.3165 46.1909 30.5195 44.9879 30.5195 43.5039Z" fill="#EBE0DB"/>
<path d="M30.5195 43.9516C30.5195 42.7149 29.517 41.7124 28.2804 41.7124C27.0437 41.7124 26.0412 42.7149 26.0412 43.9516C26.0412 45.1882 27.0437 46.1907 28.2804 46.1907C29.517 46.1907 30.5195 45.1882 30.5195 43.9516Z" fill="#B18977"/>
<path d="M57.3893 21.2922V23.3518V29.9112C57.3893 29.9985 57.3185 30.0693 57.2312 30.0693H42.3212C42.2339 30.0693 42.1631 29.9985 42.1631 29.9112V23.4397C42.1631 23.385 42.1913 23.3343 42.2377 23.3054L51.1964 17.7392C51.3178 17.6638 51.4689 17.7752 51.4328 17.9135L50.4782 21.5634C50.4401 21.7089 50.6077 21.8203 50.7272 21.7289L54.6104 18.7594C54.7365 18.663 54.9101 18.7916 54.8545 18.9403L53.9672 21.3152C53.9256 21.4267 54.0173 21.5424 54.1352 21.5274L57.2112 21.1353C57.3057 21.1233 57.3893 21.1969 57.3893 21.2922Z" fill="#BC8B2C"/>
<path fill-rule="evenodd" clip-rule="evenodd" d="M31.733 29.0066C34.6735 25.0851 40.2232 22.9038 50.2239 22.9038C60.2271 22.9038 65.7771 25.0862 68.7171 29.0095C70.623 30.9187 71.8736 33.4917 72.0871 36.3742L72.4905 41.8202C72.5733 42.9369 72.4945 44.0597 72.2566 45.1538L70.1305 54.934C68.9669 60.2865 64.2301 64.1042 58.7526 64.1042H41.6947C36.2174 64.1042 31.4806 60.2866 30.3169 54.9342L28.1906 45.1539C27.9527 44.0597 27.8739 42.9369 27.9566 41.8201L28.36 36.3742C28.5736 33.4902 29.8254 30.916 31.733 29.0066Z" fill="#EBE0DB"/>
<path d="M71.7202 41.7129C71.7202 52.188 62.0962 60.5217 50.2244 60.5217C38.3525 60.5217 28.7285 52.188 28.7285 41.7129C28.7285 31.2377 32.4522 24.6953 50.2244 24.6953C67.9965 24.6953 71.7202 31.2377 71.7202 41.7129Z" fill="#D2BBB0"/>
<path d="M40.9811 42.0524C41.6695 38.7252 44.6001 36.3389 47.9978 36.3389H52.4505C55.8483 36.3389 58.7788 38.7252 59.4672 42.0524L61.8762 53.696C62.7963 58.1428 59.4006 62.313 54.8596 62.313H45.5888C41.0478 62.313 37.6521 58.1428 38.5721 53.696L40.9811 42.0524Z" fill="#B18977"/>
<path d="M64.9125 43.6441L62.5376 43.1351C60.4462 42.6868 58.6704 41.2305 56.9103 40.0153C55.491 39.0355 53.3373 38.1299 50.2244 38.1299C47.1116 38.1299 44.9578 39.0355 43.5386 40.0153C41.7784 41.2305 40.0026 42.6868 37.9112 43.1351L35.5364 43.6441C31.4052 44.5295 28.9331 48.779 30.2054 52.8079L31.6255 57.3051C32.5669 60.2861 35.3322 62.3127 38.4582 62.3127H50.2244H61.9906C65.1167 62.3127 67.882 60.2861 68.8233 57.3051L70.2435 52.8079C71.5158 48.779 69.0437 44.5295 64.9125 43.6441Z" fill="#EBE0DB"/>
<path fill-rule="evenodd" clip-rule="evenodd" d="M74.5926 46.936C73.9835 46.7421 73.3519 46.5831 72.6967 46.4919C71.2598 46.2918 69.7983 46.1909 68.3325 46.1909C65.6886 46.1909 63.065 46.5192 60.5806 47.1608L56.4578 48.2256C56.3448 48.2548 56.2865 48.3435 56.3277 48.4237L56.5512 48.8595C56.5924 48.9397 56.7174 48.9811 56.8304 48.9519L60.9532 47.8871C63.3182 47.2762 65.8156 46.9638 68.3325 46.9638C70.0465 46.9638 71.7544 47.1087 73.4201 47.3955L75.9936 47.7158C76.2462 47.7472 76.3544 47.497 76.1204 47.4225L74.5926 46.936Z" fill="#333333"/>
<path fill-rule="evenodd" clip-rule="evenodd" d="M66.6528 47.3113C64.5341 47.2071 62.4052 47.3098 60.3259 47.6167L56.5204 48.1783C56.4026 48.1957 56.327 48.2776 56.3515 48.3611L56.4846 48.8151C56.5091 48.8987 56.6244 48.9524 56.7422 48.935L60.5477 48.3733C62.5294 48.0809 64.5582 47.9829 66.5774 48.0823C68.7949 48.1914 70.9764 48.5371 73.0484 49.108L75.5158 49.6751C75.7596 49.7312 75.9159 49.4944 75.6991 49.3973L74.3315 48.7853C73.7403 48.5207 73.1171 48.2919 72.4548 48.1335C70.5796 47.6851 68.6298 47.4085 66.6528 47.3113Z" fill="#333333"/>
<path fill-rule="evenodd" clip-rule="evenodd" d="M70.6496 49.1019C67.1898 48.4521 63.6259 48.123 60.0469 48.123H56.6244C56.5041 48.123 56.4066 48.1922 56.4066 48.2776V48.7413C56.4066 48.8267 56.5041 48.8959 56.6244 48.8959H60.0469C63.5216 48.8959 66.9817 49.2144 70.3412 49.8435C71.8051 50.2498 72.8407 50.4375 73.9687 51.2144L75.6812 52.4261C75.8717 52.5325 76.128 52.3717 76.0024 52.2246L75.7522 51.9315C75.2706 51.3672 74.7042 50.835 73.9687 50.4315C72.9601 49.8782 71.8274 49.4264 70.6496 49.1019Z" fill="#333333"/>
<path fill-rule="evenodd" clip-rule="evenodd" d="M25.9074 46.936C26.5165 46.7421 27.1481 46.5831 27.8033 46.4919C29.2402 46.2918 30.7017 46.1909 32.1675 46.1909C34.8114 46.1909 37.435 46.5192 39.9194 47.1608L44.0422 48.2256C44.1552 48.2548 44.2135 48.3435 44.1723 48.4237L43.9488 48.8595C43.9076 48.9397 43.7826 48.9811 43.6696 48.9519L39.5468 47.8871C37.1818 47.2762 34.6844 46.9638 32.1675 46.9638C30.4535 46.9638 28.7456 47.1087 27.0799 47.3955L24.5064 47.7158C24.2538 47.7472 24.1456 47.497 24.3796 47.4225L25.9074 46.936Z" fill="#333333"/>
<path fill-rule="evenodd" clip-rule="evenodd" d="M33.8472 47.3113C35.9659 47.2071 38.0948 47.3098 40.1741 47.6167L43.9796 48.1783C44.0974 48.1957 44.173 48.2776 44.1485 48.3611L44.0154 48.8151C43.9909 48.8987 43.8756 48.9524 43.7578 48.935L39.9523 48.3733C37.9706 48.0809 35.9418 47.9829 33.9226 48.0823C31.7051 48.1914 29.5236 48.5371 27.4516 49.108L24.9842 49.6751C24.7404 49.7312 24.5841 49.4944 24.8009 49.3973L26.1685 48.7853C26.7597 48.5207 27.3829 48.2919 28.0452 48.1335C29.9204 47.6851 31.8702 47.4085 33.8472 47.3113Z" fill="#333333"/>
<path fill-rule="evenodd" clip-rule="evenodd" d="M29.8504 49.1019C33.3102 48.4521 36.8741 48.123 40.4531 48.123H43.8756C43.9959 48.123 44.0934 48.1922 44.0934 48.2776V48.7413C44.0934 48.8267 43.9959 48.8959 43.8756 48.8959H40.4531C36.9784 48.8959 33.5183 49.2144 30.1588 49.8435C28.6949 50.2498 27.6593 50.4375 26.5313 51.2144L24.8188 52.4261C24.6283 52.5325 24.372 52.3717 24.4976 52.2246L24.7478 51.9315C25.2294 51.3672 25.7958 50.835 26.5313 50.4315C27.5399 49.8782 28.6726 49.4264 29.8504 49.1019Z" fill="#333333"/>
<path d="M43.4941 43.0227C43.6259 42.2656 44.283 41.7129 45.0515 41.7129H55.3974C56.1659 41.7129 56.823 42.2656 56.9548 43.0227L57.9632 48.8177C58.1314 49.7846 57.3872 50.6695 56.4058 50.6695H44.0431C43.0617 50.6695 42.3175 49.7846 42.4857 48.8177L43.4941 43.0227Z" fill="#BC8B2C"/>
<path fill-rule="evenodd" clip-rule="evenodd" d="M49.3291 52.7025L49.3291 47.5649L51.1204 47.5649L51.1204 52.7025L49.3291 52.7025Z" fill="black"/>
<path d="M45.7801 51.6637C46.8712 51.1829 48.0856 51.3129 49.0595 51.9974C49.3492 52.2009 50.1183 52.3644 50.4499 52.4085C50.7842 52.4217 51.4161 52.3787 51.7363 52.2276C52.8128 51.7195 54.0315 51.7988 55.0245 52.4589C55.9731 53.0895 56.7097 53.9913 57.1381 55.0468L57.2713 55.3748C57.2974 55.4393 57.2215 55.4969 57.1664 55.4543L56.5368 54.967C56.0584 54.5967 55.5285 54.298 54.9639 54.0804C54.5395 53.9169 54.1442 53.6715 53.7055 53.5512C53.2207 53.4184 52.6991 53.4626 52.2206 53.6884C51.7016 53.9334 50.8573 54.0148 50.3144 53.9843C49.7742 53.9216 48.8024 53.684 48.3329 53.354C47.9 53.0497 47.3935 52.9171 46.8932 52.9653C46.4404 53.0088 46.009 53.1831 45.5629 53.2718C44.9694 53.3897 44.3964 53.5935 43.8617 53.8767L43.1581 54.2493C43.0966 54.2819 43.0316 54.2122 43.0684 54.1531L43.2556 53.8526C43.858 52.8858 44.7377 52.123 45.7801 51.6637Z" fill="#333333"/>
<path d="M45.9145 40.8356C46.1734 39.7734 47.1249 39.0259 48.2182 39.0259H52.2298C53.3231 39.0259 54.2747 39.7734 54.5336 40.8356L55.7789 45.9455C56.1428 47.4386 55.012 48.8781 53.4752 48.8781H46.9729C45.4361 48.8781 44.3052 47.4386 44.6691 45.9455L45.9145 40.8356Z" fill="#333333"/>
<path d="M45.8136 43.3307C46.1374 42.3642 47.0427 41.7129 48.0619 41.7129H52.3865C53.4058 41.7129 54.311 42.3642 54.6348 43.3307L55.4468 45.7536C55.9615 47.2897 54.8185 48.8782 53.1984 48.8782H47.25C45.6299 48.8782 44.4869 47.2897 45.0017 45.7536L45.8136 43.3307Z" fill="black"/>
<path fill-rule="evenodd" clip-rule="evenodd" d="M64.7619 36.9829C65.5673 37.0112 67.2415 36.8223 67.2415 36.8223C66.7111 36.7757 66.0311 36.4565 65.3188 36.1222C64.5322 35.7529 63.7063 35.3652 62.9994 35.306C61.6504 35.1932 60.9719 36.6507 60.9719 36.6507C61.0049 36.6391 61.0378 36.6281 61.0704 36.6176C60.4638 37.2358 60.0762 38.1793 60.0762 39.2364C60.0762 41.0986 61.2792 42.6083 62.7632 42.6083C64.2471 42.6083 65.4501 41.0986 65.4501 39.2364C65.4501 38.3701 65.1898 37.5801 64.7619 36.9829Z" fill="black"/>
<path fill-rule="evenodd" clip-rule="evenodd" d="M35.6853 36.9829C34.88 37.0112 33.2057 36.8223 33.2057 36.8223C33.7362 36.7757 34.4162 36.4565 35.1284 36.1222C35.9151 35.7529 36.7409 35.3652 37.4479 35.306C38.7969 35.1932 39.4753 36.6507 39.4753 36.6507C39.4423 36.6391 39.4095 36.6281 39.3768 36.6176C39.9835 37.2358 40.3711 38.1793 40.3711 39.2364C40.3711 41.0986 39.1681 42.6083 37.6841 42.6083C36.2001 42.6083 34.9971 41.0986 34.9971 39.2364C34.9971 38.3701 35.2575 37.5801 35.6853 36.9829Z" fill="black"/>
<path d="M61.064 33.3317C60.8622 33.2972 60.7802 33.2505 60.7513 33.2281C60.7542 33.2049 60.7664 33.1511 60.8206 33.0579C60.9059 32.9108 61.0484 32.7531 61.1957 32.6327C61.262 32.5785 61.3204 32.5393 61.3642 32.5147C61.4131 32.5272 61.4772 32.5444 61.5557 32.5662C61.7446 32.6187 62.0046 32.6944 62.3109 32.7861C62.9229 32.9692 63.7121 33.2138 64.4716 33.4584C64.5145 33.4722 64.5572 33.486 64.5998 33.4998C64.5429 33.4999 64.4857 33.5 64.4282 33.5C63.1665 33.5 61.8379 33.4638 61.064 33.3317ZM60.7376 33.215C60.7377 33.215 60.7386 33.2159 60.7399 33.218C60.7382 33.2161 60.7375 33.2151 60.7376 33.215ZM61.4124 32.4915C61.4124 32.4915 61.4115 32.4919 61.4097 32.4924C61.4115 32.4917 61.4125 32.4914 61.4124 32.4915ZM61.2835 32.4956C61.2792 32.4949 61.2767 32.4944 61.2765 32.4943C61.2764 32.4942 61.2786 32.4946 61.2835 32.4956Z" fill="black" stroke="black" stroke-linejoin="round"/>
<path d="M40.436 33.3317C40.6378 33.2972 40.7198 33.2505 40.7487 33.2281C40.7458 33.2049 40.7336 33.1511 40.6794 33.0579C40.5941 32.9108 40.4516 32.7531 40.3043 32.6327C40.238 32.5785 40.1796 32.5393 40.1358 32.5147C40.0869 32.5272 40.0228 32.5444 39.9443 32.5662C39.7554 32.6187 39.4954 32.6944 39.1891 32.7861C38.5771 32.9692 37.7879 33.2138 37.0284 33.4584C36.9855 33.4722 36.9428 33.486 36.9002 33.4998C36.9571 33.4999 37.0143 33.5 37.0718 33.5C38.3335 33.5 39.6621 33.4638 40.436 33.3317ZM40.7624 33.215C40.7623 33.215 40.7614 33.2159 40.7601 33.218C40.7618 33.2161 40.7625 33.2151 40.7624 33.215ZM40.0876 32.4915C40.0876 32.4915 40.0885 32.4919 40.0903 32.4924C40.0885 32.4917 40.0875 32.4914 40.0876 32.4915ZM40.2165 32.4956C40.2208 32.4949 40.2233 32.4944 40.2235 32.4943C40.2236 32.4942 40.2214 32.4946 40.2165 32.4956Z" fill="black" stroke="black" stroke-linejoin="round"/>
<path d="M68.1373 60.0739L68.8054 59.2387C69.5521 58.3053 70.1981 57.2957 70.7327 56.2266L70.8863 55.9193C71.1432 55.4056 71.3632 54.8743 71.5449 54.3294L72.0886 52.698C72.141 52.5409 72.1677 52.3763 72.1677 52.2107V51.1724C72.1677 50.8946 71.9425 50.6694 71.6648 50.6694C71.4339 50.6694 71.2327 50.8265 71.1768 51.0504L70.4549 53.9379C70.4026 54.1471 70.3347 54.352 70.2518 54.551L70.0934 54.9311C68.8669 57.8747 66.2892 60.0451 63.156 60.639C59.1387 61.4005 53.6167 62.313 50.224 62.313C46.8313 62.313 41.3093 61.4005 37.292 60.639C34.1589 60.0451 31.5811 57.8747 30.3546 54.9311L30.1962 54.551C30.1133 54.352 30.0454 54.1471 29.9931 53.9379L29.2712 51.0504C29.2153 50.8265 29.0141 50.6694 28.7833 50.6694C28.5055 50.6694 28.2803 50.8946 28.2803 51.1724V52.2107C28.2803 52.3763 28.307 52.5409 28.3594 52.698L28.9032 54.3294C29.0848 54.8743 29.3048 55.4056 29.5617 55.9193L29.7153 56.2266C30.2499 57.2957 30.8959 58.3053 31.6426 59.2387L32.3107 60.0739C33.7676 61.8221 35.7306 63.0757 37.9295 63.6621L41.2674 64.5522C43.0556 64.8502 44.8654 65 46.6783 65H54.2102C55.7288 65 57.2437 64.85 58.7328 64.5522L62.5049 63.6092C64.7098 63.0579 66.6823 61.8199 68.1373 60.0739Z" fill="black"/>
</g>
<defs>
<clipPath id="clip0_13785_208105">
<rect width="53.7396" height="49.0825" fill="white" transform="translate(23.3545 15.9175)"/>
</clipPath>
</defs>
</svg>
